<?xml version="1.0" encoding="UTF-8"?>
<svg version="1.1" xmlns="http://www.w3.org/2000/svg" width="512" height="512">
<path d="M0 0 C11.20196264 9.94331515 16.90528836 22.10990887 19.10546875 36.75390625 C19.26966309 37.79199936 19.43385742 38.83009247 19.60302734 39.89964294 C21.48876053 52.04041089 23.04592919 64.22560774 24.5859375 76.4140625 C24.89114085 78.80067745 25.19680965 81.18723292 25.50292969 83.57373047 C26.23901793 89.3189242 26.9706287 95.0646738 27.69995117 100.81072998 C30.45835951 122.91895409 30.45835951 122.91895409 33.5859375 144.9765625 C33.70138916 145.73928467 33.81684082 146.50200684 33.93579102 147.2878418 C34.48571728 150.91630266 35.03805758 154.54425388 35.60302734 158.17041016 C40.1172058 187.39585821 42.85947907 214.14428254 24.61328125 239.3984375 C10.93294502 257.12366235 -9.3181699 264.90141334 -29.63256836 272.61938477 C-35.29033408 274.77422609 -40.79770887 277.13235118 -46.29345703 279.67114258 C-50.10910093 281.38985305 -53.99912072 282.87692281 -57.9140625 284.3515625 C-62.81411852 286.22499432 -67.66206937 288.12223239 -72.4140625 290.3515625 C-77.93606258 292.94213044 -83.60825202 295.08550742 -89.30078125 297.265625 C-93.40117022 298.84533934 -97.43367663 300.48422098 -101.4140625 302.3515625 C-106.16633385 304.58102313 -111.0149392 306.47522785 -115.9140625 308.3515625 C-120.87312176 310.25145852 -125.78326231 312.1741651 -130.6015625 314.4140625 C-149.88488382 323.37339025 -165.55640351 327.93324094 -186.4609375 321.0078125 C-200.43077618 315.26135404 -211.56968089 304.47740107 -217.77612305 290.75854492 C-223.20944469 277.4984341 -223.54523207 261.86868401 -218.1953125 248.5703125 C-211.76254085 234.92028486 -201.68315151 225.78228879 -189.609375 217.08056641 C-186.47687358 214.80968332 -183.38450194 212.48507376 -180.2890625 210.1640625 C-179.6192334 209.66277832 -178.9494043 209.16149414 -178.25927734 208.64501953 C-172.32849955 204.19309229 -166.48053059 199.63857086 -160.63745117 195.07250977 C-155.00718146 190.6807417 -149.31871642 186.37393791 -143.5949707 182.10498047 C-138.51424748 178.31324501 -133.49086832 174.45659804 -128.5 170.546875 C-125.72040273 168.4115874 -122.85525811 166.43386168 -119.953125 164.46875 C-119.08985596 163.87046387 -118.22658691 163.27217773 -117.3371582 162.65576172 C-115.6357679 161.47992011 -113.9185576 160.32654943 -112.18432617 159.19970703 C-108.27593794 156.46773121 -105.5600693 154.37495384 -104.5078125 149.59765625 C-104.27557504 147.68614945 -104.08358507 145.76964868 -103.9140625 143.8515625 C-103.74658675 142.49166707 -103.57317119 141.13249585 -103.39526367 139.77392578 C-102.86939101 135.71231592 -102.38617404 131.64676979 -101.91259766 127.57876587 C-100.0940703 111.9990609 -98.07394246 96.46231589 -95.79418945 80.94384766 C-94.65472863 73.16352529 -93.58056733 65.37941781 -92.59375 57.578125 C-92.42924347 56.28671852 -92.42924347 56.28671852 -92.26141357 54.96922302 C-91.73097423 50.80073851 -91.20891736 46.63151388 -90.70117188 42.46020508 C-89.39697547 31.99740606 -87.829415 22.38392283 -82.3515625 13.2265625 C-81.75214844 12.20304687 -81.15273437 11.17953125 -80.53515625 10.125 C-80.00019531 9.37476562 -79.46523437 8.62453125 -78.9140625 7.8515625 C-78.2540625 7.8515625 -77.5940625 7.8515625 -76.9140625 7.8515625 C-76.53507812 6.97951172 -76.53507812 6.97951172 -76.1484375 6.08984375 C-70.97183318 -3.29684699 -59.04725666 -8.82576212 -49.21484375 -12.02734375 C-31.55983515 -16.09282882 -13.84244896 -11.41394914 0 0 Z M-54.9140625 25.8515625 C-58.99554407 31.8324872 -60.77083124 37.29035857 -61.53515625 44.4296875 C-61.64774277 45.33108459 -61.76032928 46.23248169 -61.87632751 47.16119385 C-62.11456215 49.07747318 -62.34498423 50.99473805 -62.5680542 52.9128418 C-63.02827566 56.82159866 -63.54578493 60.72200611 -64.06045532 64.62390137 C-64.58344525 68.60862563 -65.08890176 72.59549309 -65.59399414 76.58251953 C-65.97811913 79.61384669 -66.36485227 82.64483281 -66.75195312 85.67578125 C-67.36800883 90.50903388 -67.97724832 95.34309678 -68.5803833 100.17797852 C-68.79781576 101.92014266 -69.01630974 103.66217476 -69.23602295 105.40405273 C-69.52774307 107.72456692 -69.81367857 110.04571478 -70.09765625 112.3671875 C-70.2567749 113.65399414 -70.41589355 114.94080078 -70.57983398 116.26660156 C-70.91094898 119.81816662 -70.97404737 123.28691145 -70.9140625 126.8515625 C-69.88667969 126.44164062 -68.85929688 126.03171875 -67.80078125 125.609375 C-49.05338695 118.25665422 -27.99157523 115.16586414 -8.7578125 123.1640625 C-7.06151539 124.02195989 -5.38257685 124.91626358 -3.734375 125.86328125 C-1.96633369 127.01060699 -1.96633369 127.01060699 0.0859375 126.8515625 C-0.46681401 117.72837802 -1.35478679 108.72908582 -2.65625 99.68359375 C-2.82528839 98.48329025 -2.99432678 97.28298676 -3.16848755 96.04631042 C-3.5243212 93.52591923 -3.8824093 91.00584537 -4.24267578 88.48608398 C-4.78517307 84.69126943 -5.32095311 80.89555557 -5.85546875 77.09960938 C-6.70370025 71.09427376 -7.56722322 65.09132005 -8.44274902 59.08990479 C-8.74420057 57.01866484 -9.04303864 54.94704176 -9.33850098 52.87493896 C-9.71156689 50.2654858 -10.09597107 47.65798885 -10.484375 45.05078125 C-10.58644257 44.3222847 -10.68851013 43.59378815 -10.79367065 42.84321594 C-12.13469152 34.07636159 -14.89221456 27.49599037 -21.9140625 21.8515625 C-32.81298301 15.31221019 -46.04000822 16.57414211 -54.9140625 25.8515625 Z M-77.9140625 168.8515625 C-79.37346221 169.98728212 -80.8331094 171.12268377 -82.29296875 172.2578125 C-84.61187926 174.06102574 -86.93062012 175.86445257 -89.24853516 177.66894531 C-95.78390971 182.75586463 -102.34415247 187.80934439 -108.9140625 192.8515625 C-111.08117097 194.51765503 -113.24761203 196.18461449 -115.4140625 197.8515625 C-116.49738374 198.68491155 -117.58071706 199.51824491 -118.6640625 200.3515625 C-119.2003125 200.7640625 -119.7365625 201.1765625 -120.2890625 201.6015625 C-151.1640625 225.3515625 -151.1640625 225.3515625 -152.78979492 226.60205078 C-153.87078371 227.43363061 -154.95167599 228.26533592 -156.0324707 229.09716797 C-158.77588916 231.20838042 -161.52106169 233.31724141 -164.26953125 235.421875 C-166.4625239 237.10140985 -168.65112308 238.78640419 -170.8359375 240.4765625 C-172.79551736 241.9885226 -174.76344333 243.4897713 -176.7421875 244.9765625 C-183.62573286 250.25257331 -190.05252166 255.82540802 -191.7265625 264.71875 C-192.42118294 272.62005753 -191.03455497 278.71750211 -185.9140625 284.8515625 C-180.36003099 290.67746967 -175.46528872 292.90302109 -167.37109375 293.13671875 C-160.92455706 293.08638921 -156.12999124 291.4986608 -150.2890625 288.9140625 C-148.11767777 288.00013639 -145.94575928 287.08747784 -143.7734375 286.17578125 C-142.88279099 285.79646454 -142.88279099 285.79646454 -141.97415161 285.40948486 C-136.54892023 283.09953297 -131.08757536 280.88418117 -125.6171875 278.68359375 C-124.70905304 278.31808914 -123.80091858 277.95258453 -122.86526489 277.57600403 C-121.00979146 276.82946517 -119.15425118 276.08309242 -117.29864502 275.33688354 C-103.11749559 269.63108256 -88.98627774 263.82128979 -74.9140625 257.8515625 C-77.74954014 254.99717779 -80.57018408 252.23568366 -83.6640625 249.6640625 C-94.89391097 239.8511629 -103.49572578 228.56668817 -106.9140625 213.8515625 C-100.98222554 208.93015869 -94.99977399 204.0811578 -88.9140625 199.3515625 C-88.36274658 198.91859863 -87.81143066 198.48563477 -87.2434082 198.03955078 C-84.79674275 196.15075077 -82.87272672 194.83778391 -79.9140625 193.8515625 C-79.89988281 194.57859375 -79.88570313 195.305625 -79.87109375 196.0546875 C-79.29429755 208.21417499 -75.49246617 217.49932597 -66.98828125 226.30859375 C-61.7745772 230.62132734 -55.94793347 233.37862914 -49.76611328 236.04980469 C-48.13333605 236.75663839 -46.51992057 237.50784258 -44.91015625 238.265625 C-38.33701404 241.2160125 -33.69137674 240.96134103 -26.86328125 238.46875 C-25.43761618 237.90063655 -24.01710823 237.31944029 -22.6015625 236.7265625 C-21.85535645 236.41452881 -21.10915039 236.10249512 -20.34033203 235.78100586 C-8.69851437 230.75069996 0.6551204 223.59764131 6.26171875 212.00390625 C9.61923748 203.23616776 9.55122655 195.05071484 9.0859375 185.8515625 C9.03953125 184.72210205 9.03953125 184.72210205 8.9921875 183.56982422 C8.62835462 177.01088391 8.23277035 170.56176372 3.30859375 165.7734375 C0.10870496 163.11182532 -3.35065742 160.99293195 -6.9140625 158.8515625 C-8.47947546 157.73061937 -10.04240228 156.60618663 -11.6015625 155.4765625 C-13.02416253 154.57754058 -14.46150067 153.70132445 -15.9140625 152.8515625 C-16.60886719 152.4390625 -17.30367187 152.0265625 -18.01953125 151.6015625 C-40.62683008 140.39519062 -60.81419283 155.50109391 -77.9140625 168.8515625 Z " fill="#5B8373" transform="translate(291.9140625,96.1484375)"/>
<path d="M0 0 C6.35695139 3.99410618 12.17826957 8.47871471 18.00292969 13.19677734 C22.53512506 16.85670939 27.13711107 20.40019761 31.8125 23.875 C38.37187071 28.75217196 44.8344086 33.74224802 51.27294922 38.77758789 C56.28178819 42.68638506 61.34041665 46.51971876 66.4375 50.3125 C83.38101567 62.97194877 97.67261925 74.7897335 101 97 C102.39533928 113.91848882 98.13172344 128.62749151 87.21875 141.6171875 C77.58163455 151.96690656 64.28972524 159.50931736 49.95703125 160.3359375 C48.575659 160.35941691 47.19406933 160.37240062 45.8125 160.375 C45.14669922 160.39949219 44.48089844 160.42398438 43.79492188 160.44921875 C32.81727027 160.51083326 22.37369169 155.51574879 12.5 151.1875 C10.23942641 150.21348376 7.97762955 149.24230335 5.71484375 148.2734375 C4.81372108 147.8874514 4.81372108 147.8874514 3.89439392 147.4936676 C-4.33499724 143.98353204 -12.64066956 140.65913381 -20.9375 137.3125 C-41.41142576 129.04351399 -41.41142576 129.04351399 -50.4375 125.25 C-51.15091553 124.95134033 -51.86433105 124.65268066 -52.59936523 124.3449707 C-56.47681492 122.7036378 -60.25406521 120.92217983 -64 119 C-61.7590259 116.50016014 -59.68120364 115.21497315 -56.61328125 113.87890625 C-55.3284082 113.31139648 -55.3284082 113.31139648 -54.01757812 112.73242188 C-52.67856445 112.15331055 -52.67856445 112.15331055 -51.3125 111.5625 C-40.97192783 107.20293078 -40.97192783 107.20293078 -31.1496582 101.82250977 C-26.47940125 100.03555966 -21.73730543 102.33090642 -17.33203125 104.109375 C-16.27306641 104.53476562 -15.21410156 104.96015625 -14.12304688 105.3984375 C-13.03056641 105.84445312 -11.93808594 106.29046875 -10.8125 106.75 C-9.73935547 107.18054688 -8.66621094 107.61109375 -7.56054688 108.0546875 C-1.50969423 110.49992015 4.45734879 113.07979427 10.38549805 115.80810547 C14.49427876 117.68120916 18.64970625 119.43851295 22.8125 121.1875 C23.61880859 121.52974609 24.42511719 121.87199219 25.25585938 122.22460938 C35.17566551 126.40179675 45.95904035 129.76742038 56.64453125 126.08984375 C62.5279072 122.59131618 66.83031433 117.50905702 69 111 C69.9127529 103.40080146 69.46143088 96.38183682 65 90 C57.85199669 82.08561283 48.52766107 75.93517337 40.04394531 69.54296875 C36.16848646 66.61739542 32.32406635 63.65203741 28.484375 60.6796875 C25.7633043 58.57645228 23.01667872 56.50914906 20.265625 54.4453125 C18.61442956 53.19291104 16.96338714 51.94030782 15.3125 50.6875 C14.52109619 50.1004126 13.72969238 49.5133252 12.91430664 48.90844727 C12.17559326 48.34440186 11.43687988 47.78035645 10.67578125 47.19921875 C10.01489502 46.70252686 9.35400879 46.20583496 8.6730957 45.6940918 C3.84746063 40.80789863 3.77081746 32.74944633 2.71289062 26.29980469 C2.37804042 24.26844463 2.0294862 22.23976996 1.6796875 20.2109375 C0.54388344 13.38259166 -0.28969294 6.92213652 0 0 Z " fill="#5B8373" transform="translate(341,261)"/>
</svg>
